<svg width="243" height="20" viewBox="0 0 243 20" fill="none" xmlns="http://www.w3.org/2000/svg">
<rect x="41.6571" y="2" width="2.31429" height="16" rx="0.5" fill="white"/>
<rect x="60.1714" y="2" width="2.31429" height="16" rx="0.5" fill="white"/>
<rect x="50.9143" y="1" width="2.31429" height="18" rx="0.5" fill="white"/>
<rect x="46.2857" width="2.31429" height="20" rx="0.5" fill="white"/>
<rect x="37.0286" y="4" width="2.31429" height="12" rx="0.5" fill="white"/>
<rect x="55.5428" y="4" width="2.31429" height="12" rx="0.5" fill="white"/>
<rect x="32.4" y="6" width="2.31429" height="8" rx="0.5" fill="white"/>
<rect x="64.8" y="6" width="2.31429" height="8" rx="0.5" fill="white"/>
<rect x="78.6857" y="6" width="2.31429" height="8" rx="0.5" fill="white"/>
<rect x="27.7714" y="8" width="2.31429" height="4" rx="0.5" fill="white"/>
<rect x="69.4286" y="8" width="2.31429" height="4" rx="0.5" fill="white"/>
<rect x="83.3143" y="8" width="2.31429" height="4" rx="0.5" fill="white"/>
<rect x="87.9429" y="9" width="2.31429" height="2" rx="0.5" fill="white"/>
<rect x="92.5714" y="9" width="2.31429" height="2" rx="0.5" fill="white"/>
<rect x="97.2" y="6" width="2.31429" height="8" rx="0.5" fill="white"/>
<rect x="101.829" y="3" width="2.31429" height="14" rx="0.5" fill="white"/>
<rect x="106.457" y="4" width="2.31429" height="12" rx="0.5" fill="#A2A2A2"/>
<rect x="157.371" y="4" width="2.31429" height="12" rx="0.5" fill="#A2A2A2"/>
<rect x="111.086" y="3" width="2.31429" height="14" rx="0.5" fill="#A2A2A2"/>
<rect x="162" y="3" width="2.31429" height="14" rx="0.5" fill="#A2A2A2"/>
<rect x="115.714" y="5" width="2.31429" height="10" rx="0.5" fill="#A2A2A2"/>
<rect x="166.629" y="5" width="2.31429" height="10" rx="0.5" fill="#A2A2A2"/>
<rect x="129.6" y="7" width="2.31429" height="6" rx="0.5" fill="#A2A2A2"/>
<rect x="180.514" y="7" width="2.31429" height="6" rx="0.5" fill="#A2A2A2"/>
<rect x="143.486" y="3" width="2.31429" height="14" rx="0.5" fill="#A2A2A2"/>
<rect x="194.4" y="7" width="2.31429" height="6" rx="0.5" fill="#A2A2A2"/>
<rect x="134.229" y="2" width="2.31429" height="16" rx="0.5" fill="#A2A2A2"/>
<rect x="185.143" y="4" width="2.31429" height="12" rx="0.5" fill="#A2A2A2"/>
<rect x="138.857" y="1" width="2.31429" height="18" rx="0.5" fill="#A2A2A2"/>
<rect x="189.771" y="6" width="2.31429" height="8" rx="0.5" fill="#A2A2A2"/>
<rect x="120.343" y="7" width="2.31429" height="6" rx="0.5" fill="#A2A2A2"/>
<rect x="171.257" y="7" width="2.31429" height="6" rx="0.5" fill="#A2A2A2"/>
<rect x="124.971" y="9" width="2.31429" height="2" rx="0.5" fill="#A2A2A2"/>
<rect x="175.886" y="4" width="2.31429" height="12" rx="0.5" fill="#A2A2A2"/>
<rect x="148.114" y="6" width="2.31429" height="8" rx="0.5" fill="#A2A2A2"/>
<rect x="199.029" y="9" width="2.31429" height="2" rx="0.5" fill="#A2A2A2"/>
<rect x="152.743" y="4" width="2.31429" height="12" rx="0.5" fill="#A2A2A2"/>
<rect x="203.657" y="9" width="2.31429" height="2" rx="0.5" fill="#A2A2A2"/>
<rect x="208.286" y="4" width="2.31429" height="12" rx="0.5" fill="#A2A2A2"/>
<rect x="212.914" y="3" width="2.31429" height="14" rx="0.5" fill="#A2A2A2"/>
<rect x="217.543" y="5" width="2.31429" height="10" rx="0.5" fill="#A2A2A2"/>
<rect x="231.429" y="7" width="2.31429" height="6" rx="0.5" fill="#A2A2A2"/>
<rect x="236.057" y="4" width="2.31429" height="12" rx="0.5" fill="#A2A2A2"/>
<rect x="240.686" y="6" width="2.31429" height="8" rx="0.5" fill="#A2A2A2"/>
<rect x="222.171" y="7" width="2.31429" height="6" rx="0.5" fill="#A2A2A2"/>
<rect x="226.8" y="9" width="2.31429" height="2" rx="0.5" fill="#A2A2A2"/>
<rect x="23.1429" y="9" width="2.31429" height="2" rx="0.5" fill="white"/>
<rect x="74.0571" y="9" width="2.31429" height="2" rx="0.5" fill="white"/>
<rect x="18.5143" y="9" width="2.31429" height="2" rx="0.5" fill="white"/>
<rect x="13.8857" y="8" width="2.31429" height="4" rx="0.5" fill="white"/>
<rect x="9.25714" y="6" width="2.31429" height="8" rx="0.5" fill="white"/>
<rect x="4.62857" y="8" width="2.31429" height="4" rx="0.5" fill="white"/>
<rect y="9" width="2.31429" height="2" rx="0.5" fill="white"/>
</svg>
