<svg width="34" height="34" viewBox="0 0 34 34" fill="none" xmlns="http://www.w3.org/2000/svg">
<path d="M8.90625 15.6562H25.7812C26.005 15.6562 26.2196 15.7451 26.3779 15.9034C26.5361 16.0616 26.625 16.2762 26.625 16.5C26.625 16.7238 26.5361 16.9384 26.3779 17.0966C26.2196 17.2549 26.005 17.3438 25.7812 17.3438H8.90625C8.68247 17.3438 8.46786 17.2549 8.30963 17.0966C8.1514 16.9384 8.0625 16.7238 8.0625 16.5C8.0625 16.2762 8.1514 16.0616 8.30963 15.9034C8.46786 15.7451 8.68247 15.6562 8.90625 15.6562Z" fill="white"/>
<path d="M9.25556 16.5L16.2536 23.4964C16.4121 23.6548 16.5011 23.8697 16.5011 24.0937C16.5011 24.3178 16.4121 24.5327 16.2536 24.6911C16.0952 24.8496 15.8803 24.9386 15.6563 24.9386C15.4322 24.9386 15.2173 24.8496 15.0589 24.6911L7.46513 17.0974C7.38655 17.019 7.32421 16.9259 7.28167 16.8234C7.23914 16.7209 7.21724 16.611 7.21724 16.5C7.21724 16.389 7.23914 16.2791 7.28167 16.1766C7.32421 16.0741 7.38655 15.981 7.46513 15.9026L15.0589 8.30887C15.2173 8.15044 15.4322 8.06143 15.6563 8.06143C15.8803 8.06143 16.0952 8.15044 16.2536 8.30887C16.4121 8.46731 16.5011 8.68219 16.5011 8.90625C16.5011 9.13031 16.4121 9.34519 16.2536 9.50362L9.25556 16.5Z" fill="white"/>
<circle cx="17" cy="17" r="16.5" stroke="#4E4E4E"/>
</svg>
